<?xml version="1.0" encoding="UTF-8" standalone="no"?>
<svg
   xmlns:dc="http://purl.org/dc/elements/1.1/"
   xmlns:cc="http://creativecommons.org/ns#"
   xmlns:rdf="http://www.w3.org/1999/02/22-rdf-syntax-ns#"
   xmlns:svg="http://www.w3.org/2000/svg"
   xmlns="http://www.w3.org/2000/svg"
   xmlns:sodipodi="http://sodipodi.sourceforge.net/DTD/sodipodi-0.dtd"
   xmlns:inkscape="http://www.inkscape.org/namespaces/inkscape"
   id="Layer_1"
   data-name="Layer 1"
   viewBox="0 0 933.93 318.72"
   version="1.1"
   sodipodi:docname="logo.svg"
   inkscape:version="0.92.4 (f8dce91, 2019-08-02)">
  <metadata
     id="metadata4183">
    <rdf:RDF>
      <cc:Work
         rdf:about="">
        <dc:format>image/svg+xml</dc:format>
        <dc:type
           rdf:resource="http://purl.org/dc/dcmitype/StillImage" />
      </cc:Work>
    </rdf:RDF>
  </metadata>
  <sodipodi:namedview
     pagecolor="#ffffff"
     bordercolor="#666666"
     borderopacity="1"
     objecttolerance="10"
     gridtolerance="10"
     guidetolerance="10"
     inkscape:pageopacity="0"
     inkscape:pageshadow="2"
     inkscape:window-width="1853"
     inkscape:window-height="1025"
     id="namedview4181"
     showgrid="false"
     inkscape:zoom="0.37476042"
     inkscape:cx="34.688828"
     inkscape:cy="159.36"
     inkscape:window-x="67"
     inkscape:window-y="27"
     inkscape:window-maximized="1"
     inkscape:current-layer="Layer_1" />
  <defs
     id="defs4152">
    <pattern
       inkscape:stockid="Stripes 1:1"
       id="Strips1_1"
       patternTransform="translate(0,0) scale(10,10)"
       height="1"
       width="2"
       patternUnits="userSpaceOnUse"
       inkscape:collect="always">
      <rect
         id="rect6062"
         height="2"
         width="1"
         y="-0.5"
         x="0"
         style="fill:black;stroke:none" />
    </pattern>
    <style
       id="style4150">.cls-1{fill:#34a1ff;}</style>
  </defs>
  <title
     id="title4154">logo</title>
  <path
     class="cls-1"
     d="m 147.98886,216.67674 a 13.69,13.69 0 0 0 -1.65,-5.22 28.49,28.49 0 0 0 -5.15,-6.23 c -4,-3.95 -8.16,-8.09 -11.79,-11.73 l -6.19,-6.2 c 0.31,-0.64 0.63,-1.29 0.94,-1.94 l 0.11,-0.22 a 86,86 0 0 0 3.64,-8.15 60.48,60.48 0 0 0 -45.090002,-79.949997 c -1.88,-0.36 -3.83,-0.61 -5.6,-0.83 l -2.61,-0.33 h -0.2 -6.71 -0.38 l -2.2,0.29 c -1.55,0.2 -3.32,0.42 -5.05,0.75 a 59.57,59.57 0 0 0 -38,23.929997 58.71,58.71 0 0 0 -11.37,30.88 2.08,2.08 0 0 1 -0.08,0.33 l -0.1,0.43 a 2.6,2.6 0 0 0 -0.06,0.56 v 6.88 a 1.27,1.27 0 0 0 0,0.2 c 0.11,0.76 0.2,1.51 0.3,2.26 0.2,1.57 0.43,3.35 0.76,5.1 a 60.38,60.38 0 0 0 90.240002,40.94 q 3.9,3.95 7.84,7.86 c 3.39,3.38 6.9,6.88 10.3,10.35 a 24.84,24.84 0 0 0 8,5.77 13.86,13.86 0 0 0 10.6,0 15.1,15.1 0 0 0 5.86,-4 15.56,15.56 0 0 0 3.64,-11.73 z m -34.92,-20.86 c 0.63,0.67 1.28,1.35 1.94,2 l 10.7,10.71 q 5.24,5.22 10.44,10.46 a 2.13,2.13 0 0 1 0.67,2.05 1.68,1.68 0 0 1 -1.3,1.17 c -0.51,0.13 -1.05,0.16 -2,-0.8 q -10.58,-10.61 -21.18,-21.2 l -1.55,-1.53 -0.3,-0.3 z m 4.91,-39.62 a 47.14,47.14 0 0 1 -47.000002,47.15 h -0.1 a 46.39,46.39 0 0 1 -33,-13.65 46.93,46.93 0 0 1 33,-80.2 v 0 a 46.91,46.91 0 0 1 33.250002,13.67 46.31,46.31 0 0 1 13.85,33.05 z"
     id="path4160"
     inkscape:connector-curvature="0"
     style="fill:#34a1ff" />
  <path
     class="cls-1"
     d="m 110.90443,85.481397 h -0.56 c -4.4,0 -7.4,2.68 -7.47,6.68 -0.07,4 2.92,6.74 7.25,6.94 a 33.89,33.89 0 0 1 5.58,0.6 30.29,30.29 0 0 1 24.37,29.510003 c 0.08,4.09 2.94,7.06 6.79,7.06 h 0.14 a 6.67,6.67 0 0 0 4.8,-2.1 7.12,7.12 0 0 0 1.84,-5.29 59.09,59.09 0 0 0 -0.77,-7.5 c -3.53,-20.06 -21.54,-35.490003 -41.97,-35.900003 z"
     id="path4162"
     inkscape:connector-curvature="0"
     style="fill:#34a1ff" />
  <text
     xml:space="preserve"
     style="font-style:normal;font-variant:normal;font-weight:bold;font-stretch:normal;font-size:133.33332825px;line-height:1.25;font-family:'DejaVu Sans Mono';-inkscape-font-specification:'DejaVu Sans Mono Bold';letter-spacing:0px;word-spacing:0px;fill:#34a1ff;fill-opacity:1;stroke:none;stroke-opacity:1;"
     x="158.76552"
     y="201.31166"
     id="text4187"><tspan
       sodipodi:role="line"
       id="tspan4185"
       x="158.76552"
       y="201.31166"
       style="font-style:normal;font-variant:normal;font-weight:bold;font-stretch:normal;font-size:133.33332825px;font-family:Ubuntu;-inkscape-font-specification:'Ubuntu Bold';stroke:none;stroke-opacity:1;">Scan<tspan
   style="font-style:normal;font-variant:normal;font-weight:bold;font-stretch:normal;font-size:133.33332825px;font-family:Ubuntu;-inkscape-font-specification:'Ubuntu Bold';fill:#f2f2f2;fill-opacity:1;stroke:none;stroke-opacity:1;"
   id="tspan4189">Rupaya</tspan></tspan></text>
</svg>
